Simulation
nRows=19
nColumns=15
endheader
time  TH_x TH_y TH_z SC_y  SC_z  SC_x  AC_y  AC_z  AC_x  GH_y  GH_z  GH_yy  EL_x  PS_y
8.073123595505619  0.000000  0.000000  0.000000  -23.655952652348063  6.313626694442579  5.77844012111624  58.41721101515502  6.433660727031636  3.5402697031262056  -137.20839426376338  4.3437990199393  -166.99071515993742  16.763270560185436  120.000000
8.113288389513109  0.000000  0.000000  0.000000  -23.387068036263624  6.363299206115012  5.6671538960350345  58.4208065840119  6.026899961983326  3.618253272264503  -136.21218876868753  3.435445845587983  -168.58025785083964  16.278560070184852  120.000000
8.153453183520599  0.000000  0.000000  0.000000  -23.08472708171359  6.44105327693176  5.605017785689068  58.4289416869333  5.690870406336009  3.729168032216521  -134.31358206243206  2.3806240926897284  -171.23125793249483  15.735574256480804  120.000000
8.19361797752809  0.000000  0.000000  0.000000  -22.754928148114615  6.555275754409687  5.608878800207254  58.447754211730114  5.443308103950719  3.8764657113871155  -127.8681546965672  1.16524079560355  -178.59776896131555  15.154247987756886  120.000000
8.23378277153558  0.000000  0.000000  0.000000  -22.407507248485672  6.713618207493778  5.693435292155611  58.48195578023737  5.298106380697121  4.06270062122917  -3.3539495465290035  0.3840505078230736  55.79307321713355  14.557697249345592  120.000000
8.273947565543072  0.000000  0.000000  0.000000  -22.056076299512117  6.922929683992726  5.868697575240388  58.5339474127159  5.263609932484433  4.291501905325543  30.889648323449997  1.9224773835304365  20.281950625940194  13.969213123076576  120.000000
8.314112359550561  0.000000  0.000000  0.000000  -21.71634192677589  7.187503485376351  6.139481869589047  58.60470678376379  5.340882296250013  4.567750641193191  34.17013788219078  3.7412084041676237  15.571129427168167  13.409641461002114  120.000000
8.354277153558053  0.000000  0.000000  0.000000  -21.403508736218413  7.506457181422575  6.505883679226677  58.69481702573538  5.523029184796828  4.896638166843971  34.99797104238609  5.767738644012474  13.168431657116132  12.895003836410323  120.000000
8.394441947565543  0.000000  0.000000  0.000000  -21.130724715515036  7.874495711916495  6.964002505028189  58.805525618525465  5.796210791407873  5.283439781959716  35.08756929882821  7.986108041174173  11.385507978404378  12.435223760864558  120.000000
8.434606741573035  0.000000  0.000000  0.000000  -20.90801672972561  8.284544278674545  7.507206261187043  58.93828460082401  6.141612175594603  5.733081614526587  34.85087898404293  10.375837080350172  9.842110560614767  12.034377518242652  120.000000
8.474771535580524  0.000000  0.000000  0.000000  -20.74180182632106  8.728475709301483  8.127187006340675  59.0942984546693  6.538213482622516  6.2485621476792375  34.44164835259682  12.911956836662934  8.418651649963225  11.691558346990416  120.000000
8.514936329588014  0.000000  0.000000  0.000000  -20.634891597120852  9.197257159127028  8.814547261445805  59.27388089605594  6.965161893430912  6.830084145666149  33.9313623399922  15.56651494128992  7.077205288552571  11.402160353414356  120.000000
8.555101123595506  0.000000  0.000000  0.000000  -20.58762219650576  9.681776735393312  9.559247984308923  59.47603640095911  7.403095155292249  7.4749324032908335  33.360329609045245  18.310107223789704  5.80756465565629  11.159670925311683  120.000000
8.595265917602996  0.000000  0.000000  0.000000  -20.599265812211577  10.17327712566707  10.35113752760796  59.6988174453256  7.8353062819294825  8.177122368749464  32.75485712009207  21.113210968987186  4.6080660584994595  10.957287439181046  120.000000
8.635430711610487  0.000000  0.000000  0.000000  -20.668851208302428  10.663767915333972  11.180019929179004  59.939339925542996  8.24845694917179  8.927460921232102  32.13151726516805  23.94680408939315  3.4800273247651283  10.788851476024302  120.000000
8.675595505617977  0.000000  0.000000  0.000000  -20.796076518809624  11.146577316526928  12.035669203704412  60.1934583387169  8.63260555644747  9.713829746867152  31.499995471293552  26.782608042922096  2.424928214861634  10.649315467503614  120.000000
8.715760299625469  0.000000  0.000000  0.000000  -20.980926087021558  11.616479252543426  12.907865783090946  60.455259068758174  8.980838436550782  10.521521632184289  30.866613103472012  29.593688344346834  1.441707062561854  10.534814106528136  120.000000
8.755925093632959  0.000000  0.000000  0.000000  -21.222455558707956  12.069204853141922  13.786537198342572  60.717970096477714  9.289234491026061  11.334396179957558  30.23591665904276  32.35487706993783  0.5262446452876046  10.442489702268606  120.000000
8.79608988764045  0.000000  0.000000  0.000000  -21.517901825517033  12.50106412809396  14.661757718618082  60.9751260484423  9.55675532639486  12.136498505093334  29.61139364813848  35.04289064640897  -0.3279289904757628  10.370296155025617  120.000000
